<?xml version="1.0" standalone="no"?>
<!DOCTYPE svg PUBLIC "-//W3C//DTD SVG 20010904//EN"
 "http://www.w3.org/TR/2001/REC-SVG-20010904/DTD/svg10.dtd">
<svg version="1.0" xmlns="http://www.w3.org/2000/svg"
 width="128.000000pt" height="128.000000pt" viewBox="0 0 128.000000 128.000000"
 preserveAspectRatio="xMidYMid meet">

<g transform="translate(0.000000,128.000000) scale(0.100000,-0.100000)"
fill="#000000" stroke="none">
<path d="M885 1022 c-33 -27 -77 -57 -97 -66 -28 -13 -46 -34 -73 -82 -19 -36
-35 -73 -35 -82 0 -24 80 -101 105 -101 53 1 105 -12 188 -49 52 -24 56 -33
27 -79 -37 -62 -156 -114 -266 -117 -59 -1 -59 -1 -57 -30 2 -30 66 -106 89
-106 6 0 17 -7 24 -15 17 -21 48 -19 46 3 -1 14 7 17 46 16 26 0 46 4 45 10
-1 5 12 12 30 16 89 20 226 190 196 244 -37 66 -196 186 -247 186 -32 0 -29
24 7 55 49 42 111 72 177 86 30 6 57 15 60 19 3 4 14 12 25 18 19 11 18 11 -7
12 -16 0 -28 5 -28 10 0 6 12 10 26 10 16 0 24 5 22 13 -6 18 -68 46 -103 47
-17 0 -35 4 -41 10 -5 5 -30 12 -54 15 -42 5 -49 3 -105 -43z m192 -68 c2 -6
-18 -18 -45 -27 -27 -8 -82 -36 -122 -62 -47 -30 -76 -43 -82 -37 -18 18 193
145 231 139 8 -1 16 -7 18 -13z m-27 -523 c-12 -24 -29 -35 -38 -26 -4 4 4 15
17 26 29 24 34 24 21 0z m-80 -51 c0 -5 -2 -10 -4 -10 -2 0 -12 -3 -20 -6 -12
-5 -15 -2 -10 10 7 17 34 22 34 6z"/>
<path d="M398 1048 c-21 -5 -38 -16 -38 -24 0 -8 -4 -14 -9 -14 -13 0 -201
-161 -203 -174 0 -6 -2 -16 -2 -22 -1 -6 -7 -18 -14 -27 -14 -17 -29 -155 -24
-233 2 -42 7 -53 22 -57 23 -6 28 -53 8 -59 -9 -3 -6 -15 11 -39 45 -66 105
-92 68 -30 -26 45 -20 46 24 7 44 -40 77 -56 116 -56 18 0 24 4 19 15 -4 11 2
15 27 15 18 0 55 11 83 24 54 27 116 75 97 76 -6 0 -14 -4 -17 -9 -9 -14 -94
-53 -107 -49 -6 2 14 23 45 47 73 56 106 96 106 127 0 45 -27 39 -87 -20 -31
-31 -75 -65 -98 -76 -44 -21 -85 -26 -85 -11 0 6 -19 11 -42 13 l-43 3 -13 80
c-17 95 -7 144 40 218 67 104 162 160 278 161 82 2 89 9 47 55 -45 49 -144 77
-209 59z"/>
<path d="M519 594 c-20 -24 -126 -104 -138 -104 -6 0 -11 -5 -11 -10 0 -23
119 57 150 100 22 32 22 41 -1 14z"/>
<path d="M878 293 c7 -3 16 -2 19 1 4 3 -2 6 -13 5 -11 0 -14 -3 -6 -6z"/>
</g>
</svg>
